<?xml version="1.0" encoding="UTF-8"?>
<svg width="242px" height="34px" viewBox="0 0 242 34" version="1.1" xmlns="http://www.w3.org/2000/svg" xmlns:xlink="http://www.w3.org/1999/xlink">
    <!-- Generator: Sketch 64 (93537) - https://sketch.com -->
    <title>InstrumentalBank_Logo_34px</title>
    <desc>Created with Sketch.</desc>
    <g id="Page-1" stroke="none" stroke-width="1" fill="none" fill-rule="evenodd">
        <g id="InstrumentalBank_Logo_34px">
            <g id="Group" transform="translate(42.000000, 7.000000)" fill="#045FB4" fill-rule="nonzero">
                <polygon id="Path" points="0.34 17.13 0.34 0 3.81 0 3.81 17.13"></polygon>
                <path d="M17.91,17.13 L14.62,17.13 L14.62,10.77 C14.6662884,9.89784599 14.5956617,9.02341958 14.41,8.17 C14.2867859,7.79613457 14.0444109,7.47296785 13.72,7.25 C13.3843856,7.02236921 12.9853145,6.90684864 12.58,6.92 C12.0336519,6.91456745 11.4990768,7.07878335 11.05,7.39 C10.6035203,7.68078118 10.2741356,8.11996079 10.12,8.63 C9.90387337,9.56710528 9.81640263,10.5292834 9.86,11.49 L9.86,17.13 L6.57,17.13 L6.57,4.68 L9.63,4.68 L9.63,6.51 C11.015854,4.59427136 13.5367248,3.88230128 15.72,4.79 C16.2536015,5.00262684 16.7248456,5.34660059 17.09,5.79 C17.4002129,6.20227463 17.6184486,6.67625536 17.73,7.18 C17.8693487,7.9080435 17.9296983,8.64900246 17.91,9.39 L17.91,17.13 Z" id="Path"></path>
                <path d="M19.55,13.58 L22.86,13.07 C22.9578879,13.643286 23.2597838,14.1618367 23.71,14.53 C24.2421418,14.8907223 24.8781516,15.0664156 25.52,15.03 C26.1931609,15.075154 26.8638105,14.9109846 27.44,14.56 C27.7270061,14.3617411 27.8899602,14.0282537 27.87,13.68 C27.8813285,13.450579 27.7982124,13.2265268 27.64,13.06 C27.3125728,12.8315536 26.9355523,12.6841729 26.54,12.63 C24.7839606,12.3450171 23.0812784,11.7954385 21.49,11 C20.5379069,10.4008687 19.9717574,9.34456296 20,8.22 C19.9914067,7.16598437 20.4623634,6.16520155 21.28,5.5 C22.4401289,4.66939068 23.8582877,4.27939701 25.28,4.4 C26.5996414,4.3121297 27.9171769,4.59990719 29.08,5.23 C29.9226795,5.82227457 30.5284667,6.69375794 30.79,7.69 L27.68,8.27 C27.5744196,7.81792639 27.3078043,7.41978084 26.93,7.15 C26.4484795,6.87078396 25.8957362,6.73868179 25.34,6.77 C24.6957647,6.72193027 24.0503426,6.84618264 23.47,7.13 C23.2365442,7.27188355 23.0957454,7.52684352 23.1,7.8 C23.1052821,8.04192593 23.228515,8.26598567 23.43,8.4 C24.4108584,8.83377612 25.4422363,9.14285355 26.5,9.32 C27.8191453,9.53592855 29.075135,10.0376418 30.18,10.79 C30.8749642,11.4075918 31.244314,12.3124988 31.18,13.24 C31.175159,14.3864544 30.648901,15.4684115 29.75,16.18 C28.5331456,17.0840374 27.0318834,17.5205747 25.52,17.41 C24.1165089,17.4858081 22.7227001,17.1373559 21.52,16.41 C20.5334179,15.7453203 19.8308038,14.7359812 19.55,13.58 Z" id="Path"></path>
                <path d="M39.13,4.68 L39.13,7.31 L36.88,7.31 L36.88,12.31 C36.8606804,12.9040073 36.8807243,13.498642 36.94,14.09 C36.9927965,14.2556322 37.0981088,14.3995591 37.24,14.5 C37.4004274,14.6140433 37.5932015,14.673628 37.79,14.67 C38.2475151,14.6346479 38.6964759,14.5266273 39.12,14.35 L39.4,16.91 C38.5745948,17.2447888 37.6906446,17.4113794 36.8,17.4 C36.2486881,17.4084744 35.7012603,17.3064692 35.19,17.1 C34.7958412,16.9338661 34.4513524,16.6686097 34.19,16.33 C33.9453677,15.9382358 33.7884408,15.4981581 33.73,15.04 C33.6412123,14.2700545 33.6077932,13.4947298 33.63,12.72 L33.63,7.31 L32.06,7.31 L32.06,4.68 L33.58,4.68 L33.58,2.21 L36.88,0.29 L36.88,4.68 L39.13,4.68 Z" id="Path"></path>
                <path d="M44.23,17.13 L40.94,17.13 L40.94,4.68 L44,4.68 L44,6.45 C44.3466862,5.80555755 44.8274873,5.24291796 45.41,4.8 C45.833828,4.53021559 46.3276707,4.39110496 46.83,4.4 C47.5943899,4.39929289 48.3445493,4.60671024 49,5 L48,7.87 C47.5469196,7.54294535 47.0082187,7.35526893 46.45,7.33 C46.0280714,7.31949624 45.6152353,7.45357974 45.28,7.71 C44.8952734,8.08286945 44.6336017,8.56434531 44.53,9.09 C44.2836078,10.4654745 44.1897065,11.8639327 44.25,13.26 L44.23,17.13 Z" id="Path"></path>
                <path d="M58.27,17.13 L58.27,15.26 C57.8221191,15.9281941 57.2088956,16.469071 56.49,16.83 C55.7698684,17.2136142 54.9659296,17.4128811 54.15,17.41 C53.3655147,17.4202587 52.5912879,17.2310033 51.9,16.86 C51.261503,16.5171774 50.7549797,15.9719613 50.46,15.31 C50.1186447,14.4348694 49.9620293,13.4985816 50,12.56 L50,4.68 L53.3,4.68 L53.3,10.4 C53.2519418,11.4766533 53.312245,12.5554108 53.48,13.62 C53.5892823,13.9953391 53.8217752,14.3229427 54.14,14.55 C54.49788,14.7960313 54.9261189,14.9188868 55.36,14.9 C55.8989358,14.9075201 56.4267918,14.7467163 56.87,14.44 C57.2911922,14.1667821 57.6109273,13.7627212 57.78,13.29 C58.0087336,12.1855867 58.0927725,11.0561028 58.03,9.93 L58.03,4.68 L61.32,4.68 L61.32,17.13 L58.27,17.13 Z" id="Path"></path>
                <path d="M64,4.68 L67,4.68 L67,6.38 C67.9075108,5.14103699 69.3443603,4.40039296 70.88,4.38 C71.6009964,4.35931877 72.3147884,4.52828402 72.95,4.87 C73.5608305,5.22429337 74.0624559,5.73975672 74.4,6.36 C74.8802324,5.74977445 75.4788945,5.24295258 76.16,4.87 C76.7777049,4.54858881 77.463678,4.3805254 78.16,4.38 C78.9696405,4.3544531 79.7711649,4.54792449 80.48,4.94 C81.1209409,5.31089431 81.6204499,5.88427442 81.9,6.57 C82.1735983,7.40118889 82.2889241,8.27630817 82.24,9.15 L82.24,17.15 L79,17.15 L79,10 C79.0684748,9.18788361 78.9522373,8.37080169 78.66,7.61 C78.3493826,7.14087247 77.811476,6.87382662 77.25,6.91 C76.783715,6.91253714 76.329629,7.05924184 75.95,7.33 C75.5245714,7.63161535 75.2142726,8.06885455 75.07,8.57 C74.8548828,9.40886748 74.7639155,10.2747417 74.8,11.14 L74.8,17.14 L71.51,17.14 L71.51,10.31 C71.5499039,9.52220294 71.4894183,8.73252982 71.33,7.96 C71.2411494,7.64746628 71.0512561,7.37317606 70.79,7.18 C70.4906816,6.99407948 70.14197,6.90341446 69.79,6.92 C69.3022807,6.91427874 68.8243948,7.05729568 68.42,7.33 C68.003202,7.61410649 67.6934296,8.02948313 67.54,8.51 C67.3311639,9.34987486 67.2436096,10.2153162 67.28,11.08 L67.28,17.13 L64,17.13 L64,4.68 Z" id="Path"></path>
                <path d="M92.27,13.17 L95.55,13.72 C95.1995264,14.8267719 94.4972782,15.7888519 93.55,16.46 C92.5353511,17.1220073 91.3407202,17.4538492 90.13,17.41 C88.276502,17.5484547 86.4760719,16.7532648 85.33,15.29 C84.4734279,14.027559 84.0424871,12.5245213 84.1,11 C83.9958207,9.23510838 84.5760535,7.49799187 85.72,6.15 C86.7606834,4.99503616 88.255986,4.35523674 89.81,4.4 C91.4708756,4.32048174 93.0793747,4.99252587 94.19,6.23 C95.2566667,7.46333333 95.7666667,9.33666667 95.72,11.85 L87.47,11.85 C87.4427826,12.6832059 87.7281387,13.4964708 88.27,14.13 C88.7535884,14.6671362 89.4474366,14.9665865 90.17,14.95 C90.6404294,14.9640894 91.1007583,14.8118268 91.47,14.52 C91.8693425,14.1631344 92.1487382,13.6916542 92.27,13.17 L92.27,13.17 Z M92.46,9.84 C92.4913593,9.04683279 92.2277234,8.27017584 91.72,7.66 C91.2806504,7.18211212 90.6591209,6.91314614 90.01,6.92 C89.3273753,6.90265492 88.6720537,7.18821406 88.22,7.7 C87.7345719,8.30416117 87.4889087,9.06607324 87.53,9.84 L92.46,9.84 Z" id="Shape"></path>
                <path d="M109.11,17.13 L105.82,17.13 L105.82,10.77 C105.866288,9.89784599 105.795662,9.02341958 105.61,8.17 C105.486786,7.79613457 105.244411,7.47296785 104.92,7.25 C104.584386,7.02236921 104.185315,6.90684864 103.78,6.92 C103.23072,6.91575853 102.693306,7.07977436 102.24,7.39 C101.798686,7.68626264 101.470844,8.12338523 101.31,8.63 C101.10377,9.56857694 101.01974,10.5298767 101.06,11.49 L101.06,17.13 L97.77,17.13 L97.77,4.68 L100.83,4.68 L100.83,6.51 C102.215854,4.59427136 104.736725,3.88230128 106.92,4.79 C107.453602,5.00262684 107.924846,5.34660059 108.29,5.79 C108.596359,6.20456419 108.814204,6.67769454 108.93,7.18 C109.069349,7.9080435 109.129698,8.64900246 109.11,9.39 L109.11,17.13 Z" id="Path"></path>
                <path d="M117.56,4.68 L117.56,7.31 L115.31,7.31 L115.31,12.31 C115.29068,12.9040073 115.310724,13.498642 115.37,14.09 C115.419258,14.2574054 115.525348,14.4023953 115.67,14.5 C115.829777,14.6153531 116.022999,14.6750763 116.22,14.67 C116.677515,14.6346479 117.126476,14.5266273 117.55,14.35 L117.83,16.91 C117.004595,17.2447888 116.120645,17.4113794 115.23,17.4 C114.678688,17.4084744 114.13126,17.3064692 113.62,17.1 C113.204719,16.9468741 112.840869,16.6800509 112.57,16.33 C112.325368,15.9382358 112.168441,15.4981581 112.11,15.04 C112.016103,14.2704433 111.979336,13.4949885 112,12.72 L112,7.31 L110.49,7.31 L110.49,4.68 L112,4.68 L112,2.21 L115.31,0.29 L115.31,4.68 L117.56,4.68 Z" id="Path"></path>
                <path d="M121.94,8.48 L118.94,7.94 C119.187179,6.87528378 119.799233,5.93066824 120.67,5.27 C121.773882,4.61638561 123.050077,4.31302765 124.33,4.4 C125.447922,4.33712407 126.566343,4.51443478 127.61,4.92 C128.24506,5.19065149 128.777444,5.65648717 129.13,6.25 C129.49235,7.18538376 129.642629,8.1895173 129.57,9.19 L129.57,13.04 C129.55257,13.8497911 129.606108,14.6595526 129.73,15.46 C129.858252,16.0385226 130.056373,16.5993044 130.32,17.13 L127,17.13 C126.874884,16.8028545 126.768052,16.469006 126.68,16.13 C126.62,15.94 126.59,15.81 126.56,15.75 C126.051759,16.2673376 125.455884,16.6905438 124.8,17 C124.151063,17.2727153 123.45391,17.4121459 122.75,17.41 C121.651218,17.4654327 120.574391,17.0885432 119.75,16.36 C119.016549,15.6854764 118.611623,14.7260556 118.64,13.73 C118.62942,13.0691308 118.802514,12.4182987 119.14,11.85 C119.478648,11.2966571 119.972437,10.855029 120.56,10.58 C121.394953,10.2167798 122.271598,9.95815254 123.17,9.81 C124.25877,9.64117546 125.329874,9.37339963 126.37,9.01 L126.37,8.68 C126.422242,8.18128665 126.254247,7.68460673 125.91,7.32 C125.379619,6.99669043 124.757867,6.85618157 124.14,6.92 C123.656165,6.89077199 123.174879,7.00934966 122.76,7.26 C122.370122,7.57488117 122.084333,8.00008033 121.94,8.48 L121.94,8.48 Z M126.34,11.15 C125.682606,11.351779 125.015008,11.5186784 124.34,11.65 C123.716775,11.7489571 123.112829,11.9446488 122.55,12.23 C122.147633,12.4785513 121.901917,12.9170586 121.9,13.39 C121.894772,13.8428605 122.084127,14.2761921 122.42,14.58 C122.768199,14.922534 123.241855,15.1069346 123.73,15.09 C124.345263,15.0806603 124.941234,14.8738231 125.43,14.5 C125.807632,14.2371969 126.08311,13.8522334 126.21,13.41 C126.322262,12.8845208 126.365959,12.3467097 126.34,11.81 L126.34,11.15 Z" id="Shape"></path>
                <polygon id="Path" points="132.23 17.13 132.23 0 135.52 0 135.52 17.13"></polygon>
                <path d="M144.64,-3.93782229e-16 L151.51,-3.93782229e-16 C152.51292,-0.022620207 153.516056,0.0342241756 154.51,0.17 C155.152216,0.26996935 155.763868,0.512579912 156.3,0.88 C156.84492,1.24787704 157.296822,1.73743784 157.62,2.31 C157.972592,2.9171711 158.155635,3.60789891 158.15,4.31 C158.146896,5.89684398 157.221794,7.33719224 155.78,8 C156.733007,8.24086958 157.580045,8.78915916 158.19,9.56 C158.754719,10.3035604 159.050819,11.2165351 159.03,12.15 C159.027216,12.9413533 158.842453,13.7214633 158.49,14.43 C158.151572,15.134146 157.638647,15.7400168 157,16.19 C156.308165,16.6619113 155.504901,16.9446049 154.67,17.01 C154.1,17.07 152.67,17.11 150.49,17.13 L144.64,17.13 L144.64,-3.93782229e-16 Z M148.11,2.86 L148.11,6.86 L150.38,6.86 C151.713333,6.86 152.553333,6.84 152.9,6.8 C153.424183,6.7608928 153.918754,6.54186864 154.3,6.18 C154.648234,5.82323479 154.832906,5.33802007 154.81,4.84 C154.832641,4.37141046 154.679266,3.91128712 154.38,3.55 C154.034619,3.19050721 153.56743,2.97296145 153.07,2.94 C152.72,2.94 151.74,2.94 150.07,2.94 L148.11,2.86 Z M148.11,9.69 L148.11,14.28 L151.32,14.28 C152.114716,14.3058512 152.910254,14.2724253 153.7,14.18 C154.185895,14.0989647 154.630021,13.8557527 154.96,13.49 C155.304117,13.0839516 155.479483,12.5614347 155.45,12.03 C155.461932,11.5645332 155.329162,11.1068288 155.07,10.72 C154.802698,10.3489862 154.424547,10.0723756 153.99,9.93 C152.977821,9.71861829 151.942706,9.63795996 150.91,9.69 L148.11,9.69 Z" id="Shape"></path>
                <path d="M163.76,8.48 L160.76,7.94 C161.003185,6.87359294 161.616058,5.92771459 162.49,5.27 C163.593882,4.61638561 164.870077,4.31302765 166.15,4.4 C167.267922,4.33712407 168.386343,4.51443478 169.43,4.92 C170.081705,5.18467889 170.631787,5.65067234 171,6.25 C171.357665,7.18648728 171.504482,8.19030756 171.43,9.19 L171.43,13.04 C171.407395,13.849898 171.460964,14.6601279 171.59,15.46 C171.713677,16.0398229 171.911996,16.6011671 172.18,17.13 L168.92,17.13 C168.84,16.91 168.73,16.58 168.61,16.13 L168.49,15.75 C167.94838,16.2775498 167.31455,16.7012326 166.62,17 C165.971387,17.2737705 165.274016,17.4132446 164.57,17.41 C163.471527,17.4632956 162.395482,17.0866798 161.57,16.36 C160.370153,15.1667992 160.123846,13.3153961 160.97,11.85 C161.307326,11.2992463 161.797097,10.8581056 162.38,10.58 C163.219028,10.218455 164.098772,9.95990419 165,9.81 C166.08877,9.64117546 167.159874,9.37339963 168.2,9.01 L168.2,8.68 C168.249597,8.17976668 168.077876,7.68287144 167.73,7.32 C167.200762,6.99387789 166.578045,6.85315077 165.96,6.92 C165.4794,6.89155182 165.001533,7.01014654 164.59,7.26 C164.196888,7.57389668 163.907619,7.99908791 163.76,8.48 Z M168.17,11.15 C167.512606,11.351779 166.845008,11.5186784 166.17,11.65 C165.543113,11.7469664 164.935568,11.9427308 164.37,12.23 C163.970022,12.4795948 163.727846,12.9185387 163.73,13.39 C163.724754,13.8408033 163.909938,14.2729 164.24,14.58 C164.59319,14.9210989 165.069219,15.105019 165.56,15.09 C166.175263,15.0806603 166.771234,14.8738231 167.26,14.5 C167.633149,14.2326856 167.907394,13.849446 168.04,13.41 C168.152262,12.8845208 168.195959,12.3467097 168.17,11.81 L168.17,11.15 Z" id="Shape"></path>
                <path d="M185.4,17.13 L182.11,17.13 L182.11,10.77 C182.156288,9.89784599 182.085662,9.02341958 181.9,8.17 C181.776786,7.79613457 181.534411,7.47296785 181.21,7.25 C180.874386,7.02236921 180.475315,6.90684864 180.07,6.92 C179.523652,6.91456745 178.989077,7.07878335 178.54,7.39 C178.093265,7.68280016 177.761247,8.12078167 177.6,8.63 C177.39377,9.56857694 177.30974,10.5298767 177.35,11.49 L177.35,17.13 L174.06,17.13 L174.06,4.68 L177.12,4.68 L177.12,6.51 C178.505854,4.59427136 181.026725,3.88230128 183.21,4.79 C183.743602,5.00262684 184.214846,5.34660059 184.58,5.79 C184.890213,6.20227463 185.108449,6.67625536 185.22,7.18 C185.359349,7.9080435 185.419698,8.64900246 185.4,9.39 L185.4,17.13 Z" id="Path"></path>
                <polygon id="Path" points="188 17.13 188 0 191.29 0 191.29 9.11 195.15 4.73 199.15 4.73 195 9.23 199.56 17.13 196 17.13 192.87 11.54 191.33 13.14 191.33 17.14"></polygon>
            </g>
            <path d="M8.5,17 C3.80557963,17 0,20.8055796 0,25.5 C0,30.1944204 3.80557963,34 8.5,34 C13.1944204,34 17,30.1944204 17,25.5 L17,17 L8.5,17 Z" id="Path" fill="#045FB4"></path>
            <rect id="Rectangle" fill="#027ACC" fill-rule="nonzero" x="17" y="0" width="17" height="17"></rect>
        </g>
    </g>
</svg>